<svg width="20" height="24" viewBox="0 0 20 24" fill="none" xmlns="http://www.w3.org/2000/svg">
<path d="M16.546 12.763C16.57 10.893 17.55 9.166 19.143 8.187C18.134 6.745 16.503 5.864 14.744 5.809C12.893 5.615 11.099 6.916 10.156 6.916C9.19499 6.916 7.74299 5.828 6.17899 5.86C4.12199 5.927 2.24999 7.068 1.24899 8.867C-0.882006 12.557 0.706994 17.981 2.74899 20.964C3.77099 22.425 4.96399 24.056 6.52699 23.999C8.05599 23.936 8.62699 23.024 10.472 23.024C12.3 23.024 12.836 23.999 14.43 23.962C16.07 23.935 17.104 22.495 18.09 21.02C18.824 19.979 19.389 18.829 19.763 17.612C17.815 16.788 16.548 14.879 16.546 12.763Z" fill="white"/>
<path d="M13.535 3.847C14.429 2.773 14.87 1.393 14.763 0C13.397 0.144 12.134 0.797 11.228 1.829C10.333 2.848 9.87901 4.18 9.96701 5.534C11.352 5.548 12.667 4.926 13.535 3.847Z" fill="white"/>
</svg>
