<svg width="30" height="30" viewBox="0 0 30 30" fill="none" xmlns="http://www.w3.org/2000/svg">
<g opacity="0.2" clip-path="url(#clip0_278_4938)">
<path d="M22.1513 3.75L20.385 1.46C20.0332 1.00726 19.5829 0.640521 19.0683 0.387568C18.5538 0.134614 17.9884 0.0020788 17.415 0L12.585 0C12.0116 0.0020788 11.4462 0.134614 10.9317 0.387568C10.4171 0.640521 9.96684 1.00726 9.61501 1.46L7.84875 3.75H22.1513Z" fill="white"/>
<path d="M15 22.5C17.7614 22.5 20 20.2614 20 17.5C20 14.7386 17.7614 12.5 15 12.5C12.2386 12.5 10 14.7386 10 17.5C10 20.2614 12.2386 22.5 15 22.5Z" fill="white"/>
<path d="M23.75 6.25H6.25C4.59301 6.25198 3.00445 6.9111 1.83277 8.08277C0.661102 9.25445 0.00198482 10.843 0 12.5L0 23.75C0.00198482 25.407 0.661102 26.9956 1.83277 28.1672C3.00445 29.3389 4.59301 29.998 6.25 30H23.75C25.407 29.998 26.9956 29.3389 28.1672 28.1672C29.3389 26.9956 29.998 25.407 30 23.75V12.5C29.998 10.843 29.3389 9.25445 28.1672 8.08277C26.9956 6.9111 25.407 6.25198 23.75 6.25ZM15 25C13.5166 25 12.0666 24.5601 10.8332 23.736C9.59985 22.9119 8.63856 21.7406 8.0709 20.3701C7.50325 18.9997 7.35472 17.4917 7.64411 16.0368C7.9335 14.582 8.64781 13.2456 9.6967 12.1967C10.7456 11.1478 12.082 10.4335 13.5368 10.1441C14.9917 9.85472 16.4997 10.0032 17.8701 10.5709C19.2406 11.1386 20.4119 12.0999 21.236 13.3332C22.0601 14.5666 22.5 16.0166 22.5 17.5C22.498 19.4885 21.7072 21.395 20.3011 22.8011C18.895 24.2072 16.9885 24.998 15 25Z" fill="white"/>
</g>
<defs>
<clipPath id="clip0_278_4938">
<rect width="30" height="30" fill="white"/>
</clipPath>
</defs>
</svg>
