<svg width="20" height="20" viewBox="0 0 20 20" fill="none" xmlns="http://www.w3.org/2000/svg">
<path d="M12.5 1.66675V10.0001C12.5 10.9167 11.75 11.6667 10.8333 11.6667H1.66667V5.00008C1.66667 3.15841 3.15834 1.66675 5.00001 1.66675H12.5Z" stroke="white" strokeWidth="1.5" strokeLinecap="round" strokeLinejoin="round"/>
<path d="M18.3333 11.6667V14.1667C18.3333 15.5501 17.2167 16.6667 15.8333 16.6667H15C15 15.7501 14.25 15.0001 13.3333 15.0001C12.4167 15.0001 11.6667 15.7501 11.6667 16.6667H8.33334C8.33334 15.7501 7.58334 15.0001 6.66667 15.0001C5.75001 15.0001 5.00001 15.7501 5.00001 16.6667H4.16667C2.78334 16.6667 1.66667 15.5501 1.66667 14.1667V11.6667H10.8333C11.75 11.6667 12.5 10.9167 12.5 10.0001V4.16675H14.0333C14.6333 4.16675 15.1833 4.49176 15.4833 5.00842L16.9083 7.50008H15.8333C15.375 7.50008 15 7.87508 15 8.33341V10.8334C15 11.2917 15.375 11.6667 15.8333 11.6667H18.3333Z" stroke="white" strokeWidth="1.5" strokeLinecap="round" strokeLinejoin="round"/>
<path d="M6.66667 18.3333C7.58714 18.3333 8.33333 17.5871 8.33333 16.6667C8.33333 15.7462 7.58714 15 6.66667 15C5.74619 15 5 15.7462 5 16.6667C5 17.5871 5.74619 18.3333 6.66667 18.3333Z" stroke="white" strokeWidth="1.5" strokeLinecap="round" strokeLinejoin="round"/>
<path d="M13.3333 18.3333C14.2538 18.3333 15 17.5871 15 16.6667C15 15.7462 14.2538 15 13.3333 15C12.4129 15 11.6667 15.7462 11.6667 16.6667C11.6667 17.5871 12.4129 18.3333 13.3333 18.3333Z" stroke="white" strokeWidth="1.5" strokeLinecap="round" strokeLinejoin="round"/>
<path d="M18.3333 10V11.6667H15.8333C15.375 11.6667 15 11.2917 15 10.8333V8.33333C15 7.875 15.375 7.5 15.8333 7.5H16.9083L18.3333 10Z" stroke="white" strokeWidth="1.5" strokeLinecap="round" strokeLinejoin="round"/>
</svg>
