<svg width="20" height="20" viewBox="0 0 20 20" fill="none" xmlns="http://www.w3.org/2000/svg">
<g opacity="0.5">
<path d="M17.3584 6.6751L11.9 2.30843C10.8334 1.45843 9.16672 1.4501 8.10838 2.3001L2.65005 6.6751C1.86672 7.3001 1.39172 8.5501 1.55838 9.53343L2.60838 15.8168C2.85005 17.2251 4.15838 18.3334 5.58338 18.3334H14.4167C15.825 18.3334 17.1584 17.2001 17.4 15.8084L18.45 9.5251C18.6 8.5501 18.125 7.3001 17.3584 6.6751ZM10.625 15.0001C10.625 15.3418 10.3417 15.6251 10 15.6251C9.65838 15.6251 9.37505 15.3418 9.37505 15.0001V12.5001C9.37505 12.1584 9.65838 11.8751 10 11.8751C10.3417 11.8751 10.625 12.1584 10.625 12.5001V15.0001Z" fill="white"/>
</g>
</svg>
