<svg width="20" height="20" viewBox="0 0 20 20" fill="none" xmlns="http://www.w3.org/2000/svg">
<g opacity="0.5">
<path d="M10.0084 18.9581C9.48341 18.9581 8.95841 18.7831 8.55008 18.4331L7.2334 17.2998C7.10006 17.1831 6.76674 17.0664 6.59174 17.0664H5.15006C3.91673 17.0664 2.91674 16.0665 2.91674 14.8332V13.4081C2.91674 13.2331 2.80007 12.9081 2.6834 12.7748L1.5584 11.4498C0.875065 10.6415 0.875065 9.36648 1.5584 8.55814L2.6834 7.23317C2.80007 7.09984 2.91674 6.77483 2.91674 6.59983V5.17476C2.91674 3.94143 3.91673 2.94148 5.15006 2.94148H6.59174C6.76674 2.94148 7.10006 2.81646 7.2334 2.70813L8.55008 1.5748C9.36674 0.874805 10.6417 0.874805 11.4584 1.5748L12.7751 2.70813C12.9084 2.82479 13.2417 2.94148 13.4167 2.94148H14.8334C16.0667 2.94148 17.0667 3.94143 17.0667 5.17476V6.59149C17.0667 6.76649 17.1917 7.09984 17.3084 7.23317L18.4334 8.5498C19.1334 9.36647 19.1334 10.6415 18.4334 11.4581L17.3084 12.7748C17.1917 12.9081 17.0751 13.2414 17.0751 13.4164V14.8332C17.0751 16.0665 16.0751 17.0664 14.8417 17.0664H13.4251C13.2501 17.0664 12.9167 17.1915 12.7834 17.2998L11.4667 18.4331C11.0501 18.7831 10.5251 18.9581 10.0084 18.9581ZM5.15006 4.18314C4.6084 4.18314 4.16674 4.62475 4.16674 5.16642V6.59149C4.16674 7.06649 3.94173 7.6748 3.64173 8.03314L2.51673 9.35811C2.22506 9.69978 2.22506 10.2915 2.51673 10.6331L3.64173 11.9581C3.95007 12.3248 4.17508 12.9331 4.17508 13.3998V14.8248C4.17508 15.3665 4.61674 15.8081 5.1584 15.8081H6.60008C7.08341 15.8081 7.69175 16.0331 8.05841 16.3498L9.37507 17.4831C9.71674 17.7748 10.3167 17.7748 10.6584 17.4831L11.9751 16.3498C12.3417 16.0415 12.9501 15.8081 13.4334 15.8081H14.8501C15.3917 15.8081 15.8334 15.3665 15.8334 14.8248V13.4081C15.8334 12.9248 16.0584 12.3164 16.3751 11.9498L17.5001 10.6331C17.7917 10.2915 17.7917 9.69143 17.5001 9.34977L16.3751 8.03314C16.0667 7.66647 15.8334 7.05814 15.8334 6.5748V5.15808C15.8334 4.61641 15.3917 4.1748 14.8501 4.1748H13.4334C12.9584 4.1748 12.3417 3.94978 11.9751 3.63311L10.6584 2.49979C10.3167 2.20813 9.71674 2.20813 9.37507 2.49979L8.05841 3.63311C7.69175 3.94145 7.08341 4.1748 6.60008 4.1748H5.15006V4.18314Z" fill="white"/>
<path d="M11.6663 14.1417H10.183C9.83297 14.1417 9.30796 14.0334 8.99962 13.725L7.84964 12.8417L8.6163 11.85L9.82464 12.7833C9.90797 12.8417 10.058 12.8833 10.183 12.8833H11.6663C11.8663 12.8833 12.108 12.7084 12.1496 12.5334L13.0996 9.64167C13.1246 9.56667 13.1246 9.51673 13.1163 9.50006C13.0996 9.47506 13.0413 9.45002 12.958 9.45002H11.3996C11.0996 9.45002 10.8246 9.32508 10.6246 9.10008C10.433 8.87508 10.3413 8.57508 10.383 8.26675L10.583 7.00841C10.5996 6.94174 10.5496 6.85835 10.4996 6.84168C10.4496 6.83335 10.3746 6.85004 10.3496 6.87504L8.75798 9.24168L7.71631 8.54171L9.31629 6.16673C9.64963 5.66673 10.3496 5.45008 10.9163 5.65841C11.5496 5.86674 11.958 6.58342 11.8163 7.23342L11.6663 8.18333H12.958C13.4496 8.18333 13.883 8.39172 14.1413 8.75839C14.3913 9.11672 14.4496 9.5834 14.2913 10.0251L13.358 12.8584C13.183 13.5751 12.4413 14.1417 11.6663 14.1417Z" fill="white"/>
<path d="M7.4167 13.7165H7.02503C5.80003 13.7165 5.6167 12.8581 5.6167 12.3498V8.53318C5.6167 8.02485 5.80003 7.1665 7.02503 7.1665H7.4167C8.6417 7.1665 8.82504 8.02485 8.82504 8.53318V12.3498C8.82504 12.8581 8.6417 13.7165 7.4167 13.7165ZM6.88338 12.4581C6.91672 12.4665 6.96671 12.4665 7.03338 12.4665H7.42504C7.49171 12.4665 7.5417 12.4665 7.57504 12.4581C7.57504 12.4331 7.58338 12.3998 7.58338 12.3498V8.53318C7.58338 8.48318 7.58337 8.44985 7.57504 8.42485C7.5417 8.41651 7.49171 8.4165 7.42504 8.4165H7.03338C6.96671 8.4165 6.91672 8.41651 6.88338 8.42485C6.88338 8.44985 6.87504 8.48318 6.87504 8.53318V12.3498C6.87504 12.3998 6.87505 12.4331 6.88338 12.4581Z" fill="white"/>
</g>
</svg>
