<svg width="20" height="20" viewBox="0 0 20 20" fill="none" xmlns="http://www.w3.org/2000/svg">
<g opacity="0.5">
<path d="M15.3917 14.0251L15.7167 16.6584C15.8 17.3501 15.0583 17.8334 14.4667 17.4751L11.5833 15.7584C11.3833 15.6417 11.3333 15.3917 11.4417 15.1917C11.8583 14.4251 12.0833 13.5584 12.0833 12.6917C12.0833 9.64175 9.46667 7.15841 6.25 7.15841C5.59167 7.15841 4.95 7.25841 4.35 7.45841C4.04167 7.55841 3.74167 7.27508 3.81667 6.95842C4.575 3.92508 7.49167 1.66675 10.975 1.66675C15.0417 1.66675 18.3333 4.74175 18.3333 8.53341C18.3333 10.7834 17.175 12.7751 15.3917 14.0251Z" fill="white"/>
<path d="M10.8333 12.6918C10.8333 13.6834 10.4667 14.6001 9.85 15.3251C9.025 16.3251 7.71667 16.9668 6.25 16.9668L4.075 18.2584C3.70834 18.4834 3.24167 18.1751 3.29167 17.7501L3.5 16.1084C2.38334 15.3334 1.66667 14.0918 1.66667 12.6918C1.66667 11.2251 2.45001 9.93345 3.65 9.16678C4.39167 8.68345 5.28334 8.40845 6.25 8.40845C8.78334 8.40845 10.8333 10.3251 10.8333 12.6918Z" fill="white"/>
</g>
</svg>
