<svg width="20" height="20" viewBox="0 0 20 20" fill="none" xmlns="http://www.w3.org/2000/svg">
<path d="M12.2916 15.8333C12.2916 17.1 11.2666 18.125 9.99992 18.125C8.73325 18.125 7.70825 17.1 7.70825 15.8333C7.70825 14.5667 8.73325 13.5417 9.99992 13.5417C11.2666 13.5417 12.2916 14.5667 12.2916 15.8333ZM8.95825 15.8333C8.95825 16.4083 9.42492 16.875 9.99992 16.875C10.5749 16.875 11.0416 16.4083 11.0416 15.8333C11.0416 15.2583 10.5749 14.7917 9.99992 14.7917C9.42492 14.7917 8.95825 15.2583 8.95825 15.8333Z" fill="white"/>
<path d="M12.2916 4.16659C12.2916 5.43325 11.2666 6.45825 9.99992 6.45825C8.73325 6.45825 7.70825 5.43325 7.70825 4.16659C7.70825 2.89992 8.73325 1.87492 9.99992 1.87492C11.2666 1.87492 12.2916 2.89992 12.2916 4.16659ZM8.95825 4.16659C8.95825 4.74159 9.42492 5.20825 9.99992 5.20825C10.5749 5.20825 11.0416 4.74159 11.0416 4.16659C11.0416 3.59159 10.5749 3.12492 9.99992 3.12492C9.42492 3.12492 8.95825 3.59159 8.95825 4.16659Z" fill="white"/>
<path d="M12.2916 10.0001C12.2916 11.2667 11.2666 12.2917 9.99992 12.2917C8.73325 12.2917 7.70825 11.2667 7.70825 10.0001C7.70825 8.73341 8.73325 7.70841 9.99992 7.70841C11.2666 7.70841 12.2916 8.73341 12.2916 10.0001ZM8.95825 10.0001C8.95825 10.5751 9.42492 11.0417 9.99992 11.0417C10.5749 11.0417 11.0416 10.5751 11.0416 10.0001C11.0416 9.42508 10.5749 8.95841 9.99992 8.95841C9.42492 8.95841 8.95825 9.42508 8.95825 10.0001Z" fill="white"/>
</svg>
