<svg width="20" height="20" viewBox="0 0 20 20" fill="none" xmlns="http://www.w3.org/2000/svg">
<g opacity="0.5">
<path d="M6.89167 18.9584H3.52501C1.85001 18.9584 1.04167 18.1834 1.04167 16.5834V3.41675C1.04167 1.81675 1.85834 1.04175 3.52501 1.04175H6.89167C8.56667 1.04175 9.375 1.81675 9.375 3.41675V16.5834C9.375 18.1834 8.55834 18.9584 6.89167 18.9584ZM3.52501 2.29175C2.46667 2.29175 2.29167 2.57508 2.29167 3.41675V16.5834C2.29167 17.4251 2.46667 17.7084 3.52501 17.7084H6.89167C7.95001 17.7084 8.125 17.4251 8.125 16.5834V3.41675C8.125 2.57508 7.95001 2.29175 6.89167 2.29175H3.52501Z" fill="white"/>
<path d="M16.475 9.37508H13.1083C11.4333 9.37508 10.625 8.63341 10.625 7.10008V3.31675C10.625 1.78341 11.4417 1.04175 13.1083 1.04175H16.475C18.15 1.04175 18.9583 1.78341 18.9583 3.31675V7.09175C18.9583 8.63341 18.1417 9.37508 16.475 9.37508ZM13.1083 2.29175C11.9917 2.29175 11.875 2.60841 11.875 3.31675V7.09175C11.875 7.80841 11.9917 8.11675 13.1083 8.11675H16.475C17.5917 8.11675 17.7083 7.80008 17.7083 7.09175V3.31675C17.7083 2.60008 17.5917 2.29175 16.475 2.29175H13.1083Z" fill="white"/>
<path d="M16.475 18.9583H13.1083C11.4333 18.9583 10.625 18.1417 10.625 16.475V13.1083C10.625 11.4333 11.4417 10.625 13.1083 10.625H16.475C18.15 10.625 18.9583 11.4417 18.9583 13.1083V16.475C18.9583 18.1417 18.1417 18.9583 16.475 18.9583ZM13.1083 11.875C12.125 11.875 11.875 12.125 11.875 13.1083V16.475C11.875 17.4583 12.125 17.7083 13.1083 17.7083H16.475C17.4583 17.7083 17.7083 17.4583 17.7083 16.475V13.1083C17.7083 12.125 17.4583 11.875 16.475 11.875H13.1083Z" fill="white"/>
</g>
</svg>
