<svg width="24" height="24" viewBox="0 0 24 24" fill="none" xmlns="http://www.w3.org/2000/svg">
<g opacity="0.5" clip-path="url(#clip0_312_9646)">
<path d="M23.1193 0.882136C22.7607 0.519263 22.3147 0.254991 21.8242 0.114852C21.3337 -0.0252864 20.8154 -0.0365548 20.3193 0.082136L4.31925 3.45214C3.39783 3.5785 2.52999 3.95961 1.81346 4.55255C1.09693 5.14548 0.560167 5.92669 0.263629 6.8082C-0.0329088 7.68971 -0.0774484 8.6365 0.135026 9.54195C0.347501 10.4474 0.808551 11.2756 1.46625 11.9331L3.18425 13.6501C3.27724 13.7431 3.35098 13.8535 3.40126 13.975C3.45153 14.0964 3.47736 14.2267 3.47725 14.3581V17.5261C3.47946 17.9716 3.582 18.4108 3.77725 18.8111L3.76925 18.8181L3.79525 18.8441C4.08827 19.4333 4.56684 19.9097 5.15726 20.2001L5.18326 20.2261L5.19026 20.2181C5.59062 20.4134 6.02983 20.5159 6.47526 20.5181H9.64326C9.90831 20.5179 10.1626 20.623 10.3503 20.8101L12.0673 22.5271C12.5278 22.9928 13.0759 23.3626 13.68 23.6154C14.2842 23.8683 14.9324 23.999 15.5873 24.0001C16.133 23.9995 16.675 23.9103 17.1923 23.7361C18.0657 23.4493 18.8416 22.9242 19.4325 22.2198C20.0234 21.5155 20.4057 20.6601 20.5363 19.7501L23.9113 3.71514C24.0361 3.21478 24.0287 2.69056 23.8899 2.1939C23.7511 1.69724 23.4855 1.24521 23.1193 0.882136ZM4.60026 12.2381L2.88125 10.5211C2.48097 10.1305 2.20043 9.63378 2.07254 9.08929C1.94465 8.5448 1.97474 7.97513 2.15925 7.44714C2.33815 6.90546 2.66886 6.42656 3.11205 6.0674C3.55524 5.70824 4.09227 5.48392 4.65926 5.42114L20.5003 2.08614L5.47526 17.1131V14.3581C5.47677 13.9645 5.40022 13.5744 5.25003 13.2105C5.09984 12.8466 4.87899 12.5161 4.60026 12.2381ZM18.5713 19.4081C18.4945 19.9605 18.2653 20.4805 17.9094 20.9098C17.5534 21.3391 17.0849 21.6607 16.5564 21.8385C16.0278 22.0163 15.4602 22.0433 14.9172 21.9164C14.3742 21.7895 13.8773 21.5138 13.4823 21.1201L11.7623 19.4001C11.4846 19.121 11.1544 18.8996 10.7907 18.7489C10.427 18.5982 10.037 18.5211 9.64326 18.5221H6.88826L21.9153 3.50014L18.5713 19.4081Z" fill="white"/>
</g>
<defs>
<clipPath id="clip0_312_9646">
<rect width="24" height="24" fill="white"/>
</clipPath>
</defs>
</svg>
