<svg width="32" height="32" viewBox="0 0 32 32" fill="none" xmlns="http://www.w3.org/2000/svg">
<path d="M28.6667 20.6667C29.04 20.6667 29.3333 20.96 29.3333 21.3333V22.6667C29.3333 24.88 27.5467 26.6667 25.3333 26.6667C25.3333 24.4667 23.5333 22.6667 21.3333 22.6667C19.1333 22.6667 17.3333 24.4667 17.3333 26.6667H14.6667C14.6667 24.4667 12.8667 22.6667 10.6667 22.6667C8.46667 22.6667 6.66667 24.4667 6.66667 26.6667C4.45334 26.6667 2.66667 24.88 2.66667 22.6667V20C2.66667 19.2667 3.26667 18.6667 4.00001 18.6667H16.6667C18.5067 18.6667 20 17.1733 20 15.3333V7.99999C20 7.26666 20.6 6.66666 21.3333 6.66666H22.4533C23.4133 6.66666 24.2933 7.18666 24.7733 8.01332L25.6267 9.50666C25.7467 9.71999 25.5867 9.99999 25.3333 9.99999C23.4933 9.99999 22 11.4933 22 13.3333V17.3333C22 19.1733 23.4933 20.6667 25.3333 20.6667H28.6667Z" fill="#FF6438"/>
<path d="M10.6667 29.3333C12.1394 29.3333 13.3333 28.1394 13.3333 26.6667C13.3333 25.1939 12.1394 24 10.6667 24C9.19391 24 8 25.1939 8 26.6667C8 28.1394 9.19391 29.3333 10.6667 29.3333Z" fill="#FF6438"/>
<path d="M21.3333 29.3333C22.8061 29.3333 24 28.1394 24 26.6667C24 25.1939 22.8061 24 21.3333 24C19.8606 24 18.6667 25.1939 18.6667 26.6667C18.6667 28.1394 19.8606 29.3333 21.3333 29.3333Z" fill="#FF6438"/>
<path d="M29.3333 16.7067V18.6667H25.3333C24.6 18.6667 24 18.0667 24 17.3333V13.3333C24 12.6 24.6 12 25.3333 12H27.0533L28.9867 15.3867C29.2133 15.7867 29.3333 16.24 29.3333 16.7067Z" fill="#FF6438"/>
<path d="M17.44 2.66666H7.58667C4.86667 2.66666 2.66667 4.86666 2.66667 7.58666V16.0933C2.66667 16.8267 3.26667 17.4267 4.00001 17.4267H16.2C17.56 17.4267 18.6667 16.32 18.6667 14.96V3.89332C18.6667 3.21332 18.12 2.66666 17.44 2.66666ZM13.4267 9.42666L10.64 12.12C10.44 12.3067 10.1867 12.4 9.94667 12.4C9.69334 12.4 9.44 12.3067 9.25334 12.12L7.90667 10.84C7.50667 10.4533 7.49334 9.81332 7.88 9.41332C8.25334 9.01332 8.89334 9.01332 9.29334 9.38666L9.94667 10.0133L12.04 7.98666C12.44 7.59999 13.0667 7.61332 13.4533 8.01332C13.84 8.41332 13.8267 9.03999 13.4267 9.42666Z" fill="#FF6438"/>
</svg>
