<svg width="20" height="20" viewBox="0 0 20 20" fill="none" xmlns="http://www.w3.org/2000/svg">
<g opacity="0.5">
<path d="M17.9167 12.9167C18.15 12.9167 18.3333 13.1001 18.3333 13.3334V14.1667C18.3333 15.5501 17.2167 16.6667 15.8333 16.6667C15.8333 15.2917 14.7083 14.1667 13.3333 14.1667C11.9583 14.1667 10.8333 15.2917 10.8333 16.6667H9.16667C9.16667 15.2917 8.04167 14.1667 6.66667 14.1667C5.29167 14.1667 4.16667 15.2917 4.16667 16.6667C2.78334 16.6667 1.66667 15.5501 1.66667 14.1667V12.5001C1.66667 12.0417 2.04167 11.6667 2.50001 11.6667H10.4167C11.5667 11.6667 12.5 10.7334 12.5 9.58341V5.00008C12.5 4.54175 12.875 4.16675 13.3333 4.16675H14.0333C14.6333 4.16675 15.1833 4.49175 15.4833 5.00841L16.0167 5.94175C16.0917 6.07508 15.9917 6.25008 15.8333 6.25008C14.6833 6.25008 13.75 7.18341 13.75 8.33341V10.8334C13.75 11.9834 14.6833 12.9167 15.8333 12.9167H17.9167Z" fill="white"/>
<path d="M6.66667 18.3333C7.58714 18.3333 8.33333 17.5871 8.33333 16.6667C8.33333 15.7462 7.58714 15 6.66667 15C5.74619 15 5 15.7462 5 16.6667C5 17.5871 5.74619 18.3333 6.66667 18.3333Z" fill="white"/>
<path d="M13.3333 18.3333C14.2538 18.3333 15 17.5871 15 16.6667C15 15.7462 14.2538 15 13.3333 15C12.4129 15 11.6667 15.7462 11.6667 16.6667C11.6667 17.5871 12.4129 18.3333 13.3333 18.3333Z" fill="white"/>
<path d="M18.3333 10.4417V11.6667H15.8333C15.375 11.6667 15 11.2917 15 10.8333V8.33333C15 7.875 15.375 7.5 15.8333 7.5H16.9083L18.1167 9.61667C18.2583 9.86667 18.3333 10.15 18.3333 10.4417Z" fill="white"/>
<path d="M10.9 1.66675H4.74167C3.04167 1.66675 1.66667 3.04175 1.66667 4.74175V10.0584C1.66667 10.5167 2.04167 10.8917 2.50001 10.8917H10.125C10.975 10.8917 11.6667 10.2001 11.6667 9.35008V2.43341C11.6667 2.00841 11.325 1.66675 10.9 1.66675ZM8.39167 5.89175L6.65 7.57508C6.525 7.69175 6.36667 7.75008 6.21667 7.75008C6.05834 7.75008 5.9 7.69175 5.78334 7.57508L4.94167 6.77508C4.69167 6.53341 4.68334 6.13341 4.925 5.88341C5.15834 5.63341 5.55834 5.63341 5.80834 5.86675L6.21667 6.25841L7.525 4.99175C7.775 4.75008 8.16667 4.75841 8.40834 5.00841C8.65 5.25841 8.64167 5.65008 8.39167 5.89175Z" fill="white"/>
</g>
</svg>
