<svg width="20" height="20" viewBox="0 0 20 20" fill="none" xmlns="http://www.w3.org/2000/svg">
<g opacity="0.5">
<path d="M10.0083 18.9584C9.48329 18.9584 8.95829 18.7834 8.54995 18.4334L7.23327 17.3C7.09994 17.1834 6.76662 17.0667 6.59162 17.0667H5.14994C3.91661 17.0667 2.91661 16.0667 2.91661 14.8334V13.4083C2.91661 13.2333 2.79995 12.9083 2.68328 12.775L1.55828 11.45C0.874943 10.6417 0.874943 9.36672 1.55828 8.55839L2.68328 7.23341C2.79995 7.10008 2.91661 6.77507 2.91661 6.60007V5.175C2.91661 3.94167 3.91661 2.94173 5.14994 2.94173H6.59162C6.76662 2.94173 7.09994 2.8167 7.23327 2.70837L8.54995 1.57505C9.36662 0.875049 10.6416 0.875049 11.4583 1.57505L12.7749 2.70837C12.9083 2.82504 13.2416 2.94173 13.4166 2.94173H14.8333C16.0666 2.94173 17.0666 3.94167 17.0666 5.175V6.59173C17.0666 6.76673 17.1916 7.10008 17.3083 7.23341L18.4333 8.55004C19.1333 9.36671 19.1333 10.6417 18.4333 11.4584L17.3083 12.775C17.1916 12.9083 17.0749 13.2417 17.0749 13.4167V14.8334C17.0749 16.0667 16.0749 17.0667 14.8416 17.0667H13.4249C13.2499 17.0667 12.9166 17.1917 12.7833 17.3L11.4666 18.4334C11.05 18.7834 10.525 18.9584 10.0083 18.9584ZM5.14994 4.18339C4.60827 4.18339 4.16661 4.625 4.16661 5.16666V6.59173C4.16661 7.06673 3.94161 7.67505 3.64161 8.03338L2.5166 9.35835C2.22494 9.70002 2.22494 10.2917 2.5166 10.6334L3.64161 11.9583C3.94994 12.325 4.17496 12.9333 4.17496 13.4V14.8251C4.17496 15.3667 4.61662 15.8083 5.15828 15.8083H6.59996C7.08329 15.8083 7.69162 16.0334 8.05829 16.35L9.37495 17.4834C9.71661 17.775 10.3166 17.775 10.6583 17.4834L11.9749 16.35C12.3416 16.0417 12.9499 15.8083 13.4333 15.8083H14.85C15.3916 15.8083 15.8333 15.3667 15.8333 14.8251V13.4083C15.8333 12.925 16.0583 12.3167 16.3749 11.95L17.4999 10.6334C17.7916 10.2917 17.7916 9.69168 17.4999 9.35001L16.3749 8.03338C16.0666 7.66672 15.8333 7.05838 15.8333 6.57505V5.15832C15.8333 4.61665 15.3916 4.17504 14.85 4.17504H13.4333C12.9583 4.17504 12.3416 3.95002 11.9749 3.63336L10.6583 2.50004C10.3166 2.20837 9.71661 2.20837 9.37495 2.50004L8.05829 3.63336C7.69162 3.94169 7.08329 4.17504 6.59996 4.17504H5.14994V4.18339Z" fill="white"/>
<path d="M11.6664 14.1417H10.1831C9.83309 14.1417 9.30808 14.0334 8.99975 13.725L7.84977 12.8417L8.61642 11.85L9.82476 12.7833C9.9081 12.8417 10.0581 12.8833 10.1831 12.8833H11.6664C11.8664 12.8833 12.1081 12.7084 12.1497 12.5334L13.0998 9.64167C13.1248 9.56667 13.1247 9.51673 13.1164 9.50006C13.0997 9.47506 13.0414 9.45002 12.9581 9.45002H11.3997C11.0997 9.45002 10.8248 9.32508 10.6248 9.10008C10.4331 8.87508 10.3414 8.57508 10.3831 8.26675L10.5831 7.00841C10.5998 6.94174 10.5498 6.85835 10.4998 6.84168C10.4498 6.83335 10.3748 6.85004 10.3498 6.87504L8.7581 9.24168L7.71643 8.54171L9.31642 6.16673C9.64975 5.66673 10.3498 5.45008 10.9164 5.65841C11.5498 5.86674 11.9581 6.58342 11.8164 7.23342L11.6664 8.18333H12.9581C13.4497 8.18333 13.8831 8.39172 14.1414 8.75839C14.3914 9.11672 14.4498 9.5834 14.2914 10.0251L13.3581 12.8584C13.1831 13.5751 12.4414 14.1417 11.6664 14.1417Z" fill="white"/>
<path d="M7.41682 13.7167H7.02516C5.80016 13.7167 5.61682 12.8584 5.61682 12.3501V8.53343C5.61682 8.02509 5.80016 7.16675 7.02516 7.16675H7.41682C8.64182 7.16675 8.82516 8.02509 8.82516 8.53343V12.3501C8.82516 12.8584 8.64182 13.7167 7.41682 13.7167ZM6.8835 12.4584C6.91684 12.4667 6.96683 12.4667 7.0335 12.4667H7.42517C7.49183 12.4667 7.54183 12.4667 7.57516 12.4584C7.57516 12.4334 7.5835 12.4001 7.5835 12.3501V8.53343C7.5835 8.48343 7.58349 8.45009 7.57516 8.42509C7.54183 8.41676 7.49183 8.41675 7.42517 8.41675H7.0335C6.96683 8.41675 6.91684 8.41676 6.8835 8.42509C6.8835 8.45009 6.87516 8.48343 6.87516 8.53343V12.3501C6.87516 12.4001 6.87517 12.4334 6.8835 12.4584Z" fill="white"/>
</g>
</svg>
